<?xml version="1.0" encoding="UTF-8"?>
<svg id="Layer_1" data-name="Layer 1" xmlns="http://www.w3.org/2000/svg" viewBox="0 0 123.32 122.55">
  <defs>
    <style>
      .cls-1 {
        fill: #008186;
      }
    </style>
  </defs>
  <rect x="-7.01" y="-5.39" width="134.81" height="137.11"/>
  <path class="cls-1" d="m101.4,68.85l-.89-6.17c-.42-2.97-2.92-4.92-5.55-4.4l-7.15,1.42-1.09-2.87-6.81-18.02-1.14-3.02h0s-.08-.21-.08-.21c-.02-.07-.05-.16-.08-.23-.01-.02-.02-.06-.03-.09-.38-.88-1.21-1.48-2.18-1.48h-7.61c-.9,0-1.7.54-2.11,1.34h0c-.05.1-.09.18-.11.27-.03.06-.06.13-.07.19-.01.04-.02.06-.02.09l-9.31,24.6c-.54,1.44.41,2.32,2.03,2.01l8.19-1.61c1.15-.22,2.39-1.31,2.82-2.45l2.34-6.13,2.65,7.03,1.09,2.87-36.3,7.24,2.42-3.56,14.43-21.25h0c.15-.16.29-.33.4-.51l4.73-7.02c.06-.09.11-.17.15-.26l.03-.05c.91-1.55.65-2.8-.69-2.8h-11.57s-22.99.05-22.99.05c-1.42,0-2.57,1.42-2.57,3.09v7c0,1.2.91,2.14,2.03,2.14h15.2l-15.52,22.87-2.94,4.33s-.02.02-.03.04l-.45.67c-.47.82-.74,1.86-.75,2.96v4.68c-.02,2.31,1.21,4.03,2.75,3.81l4.85-.68,52.55-7.46,1.1,2.92,2.14,5.67c.61,1.59,2.44,2.9,4.13,2.9h5.97c1.87,0,2.89-1.41,2.23-3.15l-2.67-7.09h-.01l-1.1-2.91,3.43-.49c2.73-.38,4.6-3.21,4.16-6.28Z"/>
</svg>